<svg xmlns="http://www.w3.org/2000/svg" viewBox="0 0 320 96" role="img" aria-labelledby="t d">
<title id="t">Ludora</title><desc id="d">A game controller with a gift spark next to the Ludora wordmark</desc>
<defs>
  <linearGradient id="g" x1="0" y1="0" x2="1" y2="1">
    <stop offset="0" stop-color="#63e6ff"/><stop offset=".5" stop-color="#8b5cf6"/><stop offset="1" stop-color="#ff4fd8"/>
  </linearGradient>
  <filter id="s"><feDropShadow dx="0" dy="4" stdDeviation="5" flood-color="#5417ff" flood-opacity=".35"/></filter>
</defs>
<g transform="translate(8 12)" filter="url(#s)">
  <path d="M26 24c-8 0-14 6-17 16L3 61c-3 11 3 20 13 20 7 0 12-4 18-12l6-8h32l6 8c6 8 11 12 18 12 10 0 16-9 13-20l-6-21c-3-10-9-16-17-16H26Z" fill="url(#g)"/>
  <rect x="23" y="39" width="25" height="8" rx="4" fill="#07152d"/><rect x="31.5" y="30.5" width="8" height="25" rx="4" fill="#07152d"/>
  <circle cx="77" cy="38" r="5" fill="#fff"/><circle cx="91" cy="49" r="5" fill="#fff"/>
  <path d="M52 12h16v18H52z" fill="#ffd84d" rx="2"/><path d="M60 10v22M50 18h20" stroke="#fff" stroke-width="3" stroke-linecap="round"/>
  <path d="M60 5c-4-8-12-2-8 4 2 3 8 5 8 5s6-2 8-5c4-6-4-12-8-4Z" fill="#ff8dcf"/>
</g>
<text x="126" y="64" font-family="Inter,Arial,sans-serif" font-weight="800" font-size="48" fill="#f8fbff">Ludora</text>
</svg>